<svg fill="#000000" xmlns="http://www.w3.org/2000/svg"  viewBox="0 0 64 64" width="64px" height="64px"><path d="M 43.179688 2 C 43.108688 2 43.037797 2.0065781 42.966797 2.0175781 C 42.678797 2.0695781 42.422563 2.2136406 42.226562 2.4316406 L 36.671875 8.0332031 L 32.349609 2.5566406 C 32.097609 2.2366406 31.718312 2.0537344 31.320312 2.0527344 C 31.280313 2.0527344 31.238266 2.0545937 31.197266 2.0585938 C 30.780266 2.1105938 30.416937 2.3546562 30.210938 2.7226562 L 26.919922 8.2402344 L 18.8125 3.5527344 C 18.6035 3.4257344 18.370719 3.3613281 18.136719 3.3613281 C 17.875719 3.3613281 17.613672 3.44075 17.388672 3.59375 C 16.961672 3.88975 16.749891 4.407875 16.837891 4.921875 L 17.867188 11.101562 L 10.460938 10.023438 C 10.398938 10.014437 10.336391 10.009766 10.275391 10.009766 C 9.8403906 10.009766 9.4276875 10.230516 9.1796875 10.603516 C 8.9016875 11.023516 8.8855781 11.574625 9.1425781 12.015625 L 12.353516 17.408203 L 5.7285156 20.767578 C 5.2245156 21.021578 4.9366719 21.567812 5.0136719 22.132812 C 5.0856719 22.692812 5.5066406 23.143813 6.0566406 23.257812 L 11.076172 24.253906 L 9.0195312 29.439453 C 8.7935312 29.968453 8.9332344 30.585844 9.3652344 30.964844 C 9.6112344 31.180844 9.9204219 31.291016 10.232422 31.291016 C 10.467422 31.291016 10.702109 31.228609 10.912109 31.099609 L 11.003906 31.046875 C 11.184351 31.046397 11.366737 31.014886 11.53125 30.912109 L 11.570312 30.886719 L 11.570312 34.044922 C 11.575313 34.127922 11.591328 34.211922 11.611328 34.294922 C 11.689336 34.684959 11.854234 35.05732 12.078125 35.388672 C 12.099827 35.420791 12.119632 35.453145 12.142578 35.484375 C 12.210897 35.604599 12.301973 35.704704 12.412109 35.787109 C 12.602126 35.980871 12.809963 36.157027 13.052734 36.285156 C 12.831734 36.461156 12.573563 36.689234 12.351562 36.990234 C 11.693563 37.918234 11.313266 39.380656 11.447266 40.972656 C 11.972266 45.753656 15.011641 47.459375 15.931641 47.859375 C 16.327641 50.115375 17.372656 52.786172 19.347656 55.576172 C 21.323656 58.628172 30.540625 63 32.515625 63 C 33.786067 63 38.038528 61.132905 41.447266 59.025391 C 43.337673 57.856612 44.978679 56.615894 45.683594 55.574219 C 47.524594 52.784219 48.578609 49.983422 48.974609 47.857422 C 49.895609 47.458422 52.924984 45.752703 53.583984 40.970703 C 53.717984 39.378703 53.296672 37.917281 52.638672 36.988281 C 52.443672 36.724281 52.2575 36.490219 52.0625 36.324219 C 52.9005 35.951219 53.492969 35.173016 53.667969 34.291016 C 53.688969 34.208016 53.702031 34.125969 53.707031 34.042969 L 53.707031 31.304688 L 53.738281 31.304688 C 54.179281 31.304688 54.587984 31.083891 54.833984 30.712891 C 55.085984 30.333891 55.126406 29.850547 54.941406 29.435547 L 52.802734 24.042969 L 58.150391 21.886719 C 58.644391 21.694719 58.984 21.2215 59 20.6875 C 59.015 20.1535 58.717375 19.6605 58.234375 19.4375 L 51.527344 16.035156 L 54.777344 9.2734375 C 55.014344 8.7964375 54.947422 8.2264063 54.607422 7.8164062 C 54.354422 7.5144063 53.982562 7.3496094 53.601562 7.3496094 C 53.472563 7.3496094 53.342844 7.3682031 53.214844 7.4082031 L 45.560547 9.6484375 L 44.490234 3.1757812 C 44.449234 2.8127813 44.264563 2.4866719 43.976562 2.2636719 C 43.744563 2.0916719 43.464687 2 43.179688 2 z M 31.417969 4.6035156 L 35.101562 9.2714844 C 35.456562 9.7214844 35.986594 9.9972969 36.558594 10.029297 C 36.596594 10.031297 36.634875 10.03125 36.671875 10.03125 C 37.203875 10.03125 37.714797 9.8194531 38.091797 9.4394531 L 42.724609 4.7675781 L 43.585938 9.9765625 C 43.678938 10.541562 44.009141 11.03875 44.494141 11.34375 C 44.816141 11.54575 45.186594 11.650391 45.558594 11.650391 C 45.746594 11.650391 45.936094 11.622359 46.121094 11.568359 L 52.328125 9.7519531 L 49.722656 15.171875 C 49.251656 16.152875 49.651094 17.330266 50.621094 17.822266 L 56.052734 20.576172 L 52.052734 22.189453 C 51.032734 22.600453 50.535406 23.75925 50.941406 24.78125 L 52.427734 28.529297 L 45.529297 24.205078 C 45.370297 24.106078 45.185047 24.054688 44.998047 24.054688 L 41.371094 24.054688 C 41.189595 24.030623 41.010357 24 40.822266 24 L 24.177734 24 C 23.989643 24 23.810405 24.030623 23.628906 24.054688 L 18.998047 24.054688 C 18.811047 24.054688 18.62775 24.105078 18.46875 24.205078 L 11.519531 28.560547 L 12.9375 24.988281 C 13.1565 24.436281 13.117984 23.815922 12.833984 23.294922 C 12.549984 22.773922 12.048797 22.404062 11.466797 22.289062 L 8.359375 21.675781 L 13.257812 19.191406 C 13.751812 18.940406 14.119438 18.496844 14.273438 17.964844 C 14.427437 17.432844 14.353313 16.860766 14.070312 16.384766 L 11.585938 12.207031 L 17.578125 13.080078 C 17.674125 13.094078 17.770234 13.101562 17.865234 13.101562 C 18.398234 13.101562 18.915922 12.887953 19.294922 12.501953 C 19.741922 12.045953 19.942891 11.403437 19.837891 10.773438 L 19.042969 5.9960938 L 25.917969 9.9707031 C 26.232969 10.152703 26.576016 10.240234 26.916016 10.240234 C 27.598016 10.240234 28.260766 9.8906719 28.634766 9.2636719 L 31.417969 4.6035156 z M 22 18.037109 C 21.448 18.037109 21 18.485109 21 19.037109 L 21 21.046875 C 21 21.598875 21.448 22.046875 22 22.046875 C 22.552 22.046875 23 21.598875 23 21.046875 L 23 19.037109 C 23 18.485109 22.552 18.037109 22 18.037109 z M 27 18.037109 C 26.448 18.037109 26 18.485109 26 19.037109 L 26 21.046875 C 26 21.598875 26.448 22.046875 27 22.046875 C 27.552 22.046875 28 21.598875 28 21.046875 L 28 19.037109 C 28 18.485109 27.552 18.037109 27 18.037109 z M 32 18.037109 C 31.448 18.037109 31 18.485109 31 19.037109 L 31 21.046875 C 31 21.598875 31.448 22.046875 32 22.046875 C 32.552 22.046875 33 21.598875 33 21.046875 L 33 19.037109 C 33 18.485109 32.552 18.037109 32 18.037109 z M 37 18.037109 C 36.448 18.037109 36 18.485109 36 19.037109 L 36 21.046875 C 36 21.598875 36.448 22.046875 37 22.046875 C 37.552 22.046875 38 21.598875 38 21.046875 L 38 19.037109 C 38 18.485109 37.552 18.037109 37 18.037109 z M 42 18.037109 C 41.448 18.037109 41 18.485109 41 19.037109 L 41 21.046875 C 41 21.598875 41.448 22.046875 42 22.046875 C 42.552 22.046875 43 21.598875 43 21.046875 L 43 19.037109 C 43 18.485109 42.552 18.037109 42 18.037109 z M 19.287109 26.054688 L 20.597656 26.054688 C 20.226723 26.67879 20 27.398812 20 28.177734 L 20 31.822266 C 20 32.623376 20.236244 33.364314 20.626953 34 L 13.617188 34 C 13.605813 33.964495 13.581523 33.934959 13.574219 33.898438 C 13.573219 33.895437 13.572266 33.891719 13.572266 33.886719 L 13.572266 30.722656 C 13.572266 30.388434 13.482078 30.070136 13.330078 29.785156 L 19.287109 26.054688 z M 23.708984 26.054688 L 41.291016 26.054688 C 42.266486 26.270403 43 27.138307 43 28.177734 L 43 31.822266 C 43 33.023266 42.023266 34 40.822266 34 L 24.177734 34 C 22.976734 34 22 33.023266 22 31.822266 L 22 28.177734 C 22 27.138307 22.733514 26.270403 23.708984 26.054688 z M 44.402344 26.054688 L 44.712891 26.054688 L 51.861328 30.53125 C 51.760029 30.773397 51.705078 31.037149 51.705078 31.304688 L 51.705078 33.886719 C 51.704078 33.891719 51.704125 33.896391 51.703125 33.900391 C 51.69578 33.937115 51.670023 33.964934 51.658203 34 L 44.373047 34 C 44.763756 33.364314 45 32.623376 45 31.822266 L 45 28.177734 C 45 27.398812 44.773277 26.67879 44.402344 26.054688 z M 15.023438 36 L 50.085938 36 C 50.083838 36.012809 50.078026 36.024227 50.076172 36.037109 C 49.978172 36.718109 50.234766 37.39875 50.759766 37.84375 C 50.785766 37.86775 50.855859 37.942531 51.005859 38.144531 C 51.334859 38.607531 51.68075 39.565953 51.59375 40.751953 C 51.04375 44.595953 48.654688 45.815484 48.179688 46.021484 C 47.569688 46.286484 47.130766 46.836234 47.009766 47.490234 C 46.995046 47.56924 46.973575 47.65243 46.957031 47.732422 C 45.799818 46.766973 43.454666 45.101562 41 45.101562 C 40.447 45.101562 40 45.548563 40 46.101562 C 40 46.654562 40.447 47.101562 41 47.101562 C 43.542 47.101562 46.265969 49.789406 46.292969 49.816406 C 46.30444 49.827877 46.320151 49.831004 46.332031 49.841797 C 46.000501 50.76448 45.600864 51.702708 45.105469 52.630859 C 44.209268 51.572083 42.533852 49.90456 40.316406 49.164062 C 39.792406 48.987062 39.227734 49.272875 39.052734 49.796875 C 38.877734 50.320875 39.159594 50.885547 39.683594 51.060547 C 42.008962 51.837145 43.638387 53.954861 44.011719 54.470703 C 43.566456 55.116604 42.555467 55.913196 41.332031 56.724609 C 40.822005 55.904507 39.979255 54.689328 38.707031 53.414062 C 38.317031 53.022062 37.686922 53.022109 37.294922 53.412109 C 36.902922 53.802109 36.902969 54.435172 37.292969 54.826172 C 38.429052 55.965942 39.183807 57.06096 39.632812 57.78125 C 36.806398 59.427517 33.551557 60.893891 32.513672 60.996094 C 31.427452 60.898741 28.160697 59.455297 25.345703 57.814453 C 25.790372 57.096454 26.554114 55.983539 27.708984 54.826172 C 28.098984 54.435172 28.099031 53.802109 27.707031 53.412109 C 27.316031 53.023109 26.683969 53.021062 26.292969 53.414062 C 25.003916 54.706198 24.157033 55.93709 23.650391 56.755859 C 22.446869 55.948084 21.45612 55.149396 21.027344 54.486328 C 21.019498 54.473775 21.010203 54.463321 21.001953 54.451172 C 21.401623 53.902 23.018656 51.827922 25.316406 51.060547 C 25.841406 50.885547 26.124219 50.319875 25.949219 49.796875 C 25.775219 49.272875 25.207594 48.987063 24.683594 49.164062 C 22.4418 49.912009 20.755464 51.60747 19.867188 52.664062 C 19.292742 51.661949 18.871075 50.737607 18.566406 49.908203 C 18.612916 49.875307 18.665531 49.856379 18.707031 49.814453 C 19.460031 49.060453 21.879 47.101562 24 47.101562 C 24.553 47.101562 25 46.654562 25 46.101562 C 25 45.548563 24.553 45.101562 24 45.101562 C 21.49772 45.101562 19.100417 46.837717 17.96875 47.792969 C 17.951429 47.70559 17.916829 47.594067 17.902344 47.511719 C 17.786344 46.849719 17.345516 46.288484 16.728516 46.021484 C 16.061516 45.732484 13.857453 44.500344 13.439453 40.777344 C 13.341453 39.540344 13.670844 38.587875 13.964844 38.171875 C 14.057844 38.044875 14.191828 37.930703 14.298828 37.845703 C 14.826828 37.424703 15.107922 36.767703 15.044922 36.095703 C 15.041823 36.062646 15.028142 36.032661 15.023438 36 z M 26 38.083984 A 2 2.005 0 0 0 26 42.09375 A 2 2.005 0 0 0 26 38.083984 z M 39 38.083984 A 2 2.005 0 0 0 39 42.09375 A 2 2.005 0 0 0 39 38.083984 z"/></svg>