
<svg fill="#000000" xmlns="http://www.w3.org/2000/svg"  viewBox="0 0 64 64" width="64px" height="64px">    <path d="M 15.472656 5.9472656 C 12.646656 5.9472656 10.315297 8.1015156 10.029297 10.853516 C 10.022297 10.902516 10 10.948 10 11 L 10 40 L 10 41.052734 L 10 55 C 10 56.654 11.346 58 13 58 L 51 58 C 52.654 58 54 56.654 54 55 L 54 41.052734 L 54 41 L 54 11 C 54 10.947 53.978703 10.901563 53.970703 10.851562 C 53.684703 8.0995625 51.352391 5.9472656 48.525391 5.9472656 C 45.752391 5.9472656 43.584516 7.6339531 43.103516 10.001953 L 20.896484 10.001953 C 20.415484 7.6339531 18.245656 5.9472656 15.472656 5.9472656 z M 15.474609 7.9472656 C 17.172609 7.9472656 19 8.902 19 11 C 19 11.552 19.447 12 20 12 L 44 12 C 44.553 12 45 11.552 45 11 C 45 8.902 46.827391 7.9472656 48.525391 7.9472656 C 50.440391 7.9472656 52 9.505875 52 11.421875 L 52 41 L 52 41.052734 L 52 55 C 52 55.551 51.552 56 51 56 L 13 56 C 12.448 56 12 55.551 12 55 L 12 42 L 41 42 C 41.553 42 42 41.552 42 41 C 42 40.448 41.553 40 41 40 L 12 40 L 12 11.421875 C 12 9.505875 13.559609 7.9472656 15.474609 7.9472656 z M 32 14 C 23.178 14 16 19.383 16 26 C 16 32.617 23.178 38 32 38 C 40.822 38 48 32.617 48 26 C 48 19.383 40.822 14 32 14 z M 32 16 C 39.72 16 46 20.486 46 26 C 46 31.514 39.72 36 32 36 C 24.28 36 18 31.514 18 26 C 18 20.486 24.28 16 32 16 z M 26 22 A 2 2 0 0 0 24 24 A 2 2 0 0 0 26 26 A 2 2 0 0 0 28 24 A 2 2 0 0 0 26 22 z M 38 22 A 2 2 0 0 0 36 24 A 2 2 0 0 0 38 26 A 2 2 0 0 0 40 24 A 2 2 0 0 0 38 22 z M 30 28 C 29.447 28 29 28.448 29 29 C 29 30.654 30.346 32 32 32 C 33.654 32 35 30.654 35 29 C 35 28.448 34.553 28 34 28 C 33.447 28 33 28.448 33 29 C 33 29.551 32.552 30 32 30 C 31.448 30 31 29.551 31 29 C 31 28.448 30.553 28 30 28 z M 45 40 C 44.447 40 44 40.448 44 41 C 44 41.552 44.447 42 45 42 L 49 42 C 49.553 42 50 41.552 50 41 C 50 40.448 49.553 40 49 40 L 45 40 z M 16 50 C 15.447 50 15 50.448 15 51 L 15 53 C 15 53.552 15.447 54 16 54 C 16.553 54 17 53.552 17 53 L 17 51 C 17 50.448 16.553 50 16 50 z M 21 50 C 20.447 50 20 50.448 20 51 L 20 53 C 20 53.552 20.447 54 21 54 C 21.553 54 22 53.552 22 53 L 22 51 C 22 50.448 21.553 50 21 50 z M 26 50 C 25.447 50 25 50.448 25 51 L 25 53 C 25 53.552 25.447 54 26 54 C 26.553 54 27 53.552 27 53 L 27 51 C 27 50.448 26.553 50 26 50 z M 31 50 C 30.447 50 30 50.448 30 51 L 30 53 C 30 53.552 30.447 54 31 54 C 31.553 54 32 53.552 32 53 L 32 51 C 32 50.448 31.553 50 31 50 z M 36 50 C 35.447 50 35 50.448 35 51 L 35 53 C 35 53.552 35.447 54 36 54 C 36.553 54 37 53.552 37 53 L 37 51 C 37 50.448 36.553 50 36 50 z M 41 50 C 40.447 50 40 50.448 40 51 L 40 53 C 40 53.552 40.447 54 41 54 C 41.553 54 42 53.552 42 53 L 42 51 C 42 50.448 41.553 50 41 50 z M 46 50 C 45.447 50 45 50.448 45 51 L 45 53 C 45 53.552 45.447 54 46 54 C 46.553 54 47 53.552 47 53 L 47 51 C 47 50.448 46.553 50 46 50 z"/></svg>