<svg fill="#000000" xmlns="http://www.w3.org/2000/svg"  viewBox="0 0 64 64" width="64px" height="64px"><path d="M 34.412109 1.6914062 C 33.606576 1.6520586 32.943922 2.4564063 33.201172 3.3007812 C 33.204172 3.3097812 33.206984 3.318125 33.208984 3.328125 C 33.828984 5.319125 34.358203 7.89625 34.158203 10.53125 C 34.108203 11.18525 34.019141 11.839188 33.869141 12.492188 C 33.769141 12.958187 33.62875 13.422906 33.46875 13.878906 C 31.56875 19.168906 26.018906 22.398516 23.878906 23.478516 C 23.198906 21.972516 21.898594 18.624219 21.808594 14.949219 L 21.806641 14.875 C 21.780641 13.875 20.697125 13.264766 19.828125 13.759766 L 19.808594 13.771484 C 12.159594 18.038484 7 26.061375 7 35.234375 C 7 48.894375 18.44 60 32.5 60 C 36.74 60 40.749531 58.990266 44.269531 57.197266 C 48.519531 55.047266 52.070469 51.759813 54.480469 47.757812 C 56.720469 44.081812 58 39.801375 58 35.234375 C 58 34.937375 57.990469 34.651516 57.980469 34.353516 C 57.990469 33.987516 58 33.619906 58 33.253906 C 58 18.909906 48.360312 6.6272031 34.820312 1.7832031 C 34.801313 1.7762031 34.782672 1.7706719 34.763672 1.7636719 C 34.645047 1.7212969 34.527186 1.6970273 34.412109 1.6914062 z M 35.539062 4.1796875 C 43.549062 7.4286875 49.959609 13.482 53.349609 21 C 55.059609 24.774 56 28.914906 56 33.253906 C 56 33.629906 55.990469 34.006813 55.980469 34.382812 C 55.810469 38.820813 54.660703 43.020453 52.720703 46.814453 C 48.640703 53.511453 41.1 58.019531 32.5 58.019531 C 19.54 58.019531 9 47.795375 9 35.234375 C 9 27.180375 13.329609 20.088875 19.849609 16.046875 C 20.229609 20.989875 22.389297 25.022531 22.529297 25.269531 L 22.960938 26.052734 L 23.789062 25.714844 C 23.969062 25.635844 26.200938 24.694563 28.710938 22.851562 C 31.220937 21.009563 34.019609 18.256016 35.349609 14.541016 C 35.569609 13.927016 35.739141 13.313453 35.869141 12.689453 C 36.009141 12.035453 36.100391 11.381516 36.150391 10.728516 C 36.340391 8.3805156 36.019063 6.1016875 35.539062 4.1796875 z M 19.666016 45.490234 C 19.410141 45.483484 19.151672 45.574172 18.951172 45.763672 L 17.5 47.138672 C 17.099 47.518672 17.082891 48.151734 17.462891 48.552734 C 17.659891 48.760734 17.9225 48.863281 18.1875 48.863281 C 18.4345 48.863281 18.683953 48.772844 18.876953 48.589844 L 20.328125 47.214844 C 20.729125 46.834844 20.745234 46.201781 20.365234 45.800781 C 20.175234 45.600281 19.921891 45.496984 19.666016 45.490234 z M 45.039062 45.832031 C 44.783313 45.832031 44.527531 45.931453 44.332031 46.126953 C 43.941031 46.516953 43.941031 47.148063 44.332031 47.539062 L 45.746094 48.955078 C 45.941094 49.150078 46.197125 49.248047 46.453125 49.248047 C 46.709125 49.248047 46.965156 49.150078 47.160156 48.955078 C 47.551156 48.565078 47.551156 47.932016 47.160156 47.541016 L 45.746094 46.126953 C 45.550594 45.931453 45.294812 45.832031 45.039062 45.832031 z M 23.441406 48.441406 C 23.055109 48.385531 22.657109 48.561266 22.443359 48.916016 L 21.408203 50.628906 C 21.122203 51.101906 21.275047 51.716953 21.748047 52.001953 C 21.910047 52.099953 22.087672 52.144531 22.263672 52.144531 C 22.602672 52.144531 22.933094 51.973109 23.121094 51.662109 L 24.154297 49.949219 C 24.440297 49.476219 24.289406 48.861172 23.816406 48.576172 C 23.697406 48.504422 23.570172 48.460031 23.441406 48.441406 z M 41.179688 48.679688 C 41.050609 48.694688 40.922984 48.736688 40.802734 48.804688 C 40.322734 49.077687 40.153781 49.687969 40.425781 50.167969 L 41.412109 51.90625 C 41.596109 52.23025 41.935203 52.412109 42.283203 52.412109 C 42.450203 52.412109 42.620391 52.36925 42.775391 52.28125 C 43.255391 52.00825 43.424344 51.399922 43.152344 50.919922 L 42.164062 49.179688 C 41.960062 48.819688 41.566922 48.634687 41.179688 48.679688 z M 27.484375 50.316406 C 27.097375 50.3645 26.758984 50.638859 26.646484 51.037109 L 26.099609 52.960938 C 25.948609 53.491937 26.258063 54.045313 26.789062 54.195312 C 26.880063 54.221312 26.9725 54.234375 27.0625 54.234375 C 27.4985 54.234375 27.898438 53.947813 28.023438 53.507812 L 28.570312 51.582031 C 28.721312 51.051031 28.411859 50.497656 27.880859 50.347656 C 27.747859 50.309906 27.613375 50.300375 27.484375 50.316406 z M 37.085938 50.435547 C 36.957391 50.415859 36.82175 50.421578 36.6875 50.455078 C 36.1525 50.591078 35.830797 51.136875 35.966797 51.671875 L 36.460938 53.609375 C 36.576938 54.061375 36.983688 54.361328 37.429688 54.361328 C 37.510687 54.361328 37.592781 54.352078 37.675781 54.330078 C 38.210781 54.194078 38.534438 53.650234 38.398438 53.115234 L 37.904297 51.177734 C 37.802297 50.777234 37.471578 50.494609 37.085938 50.435547 z M 32.277344 50.988281 C 31.702344 50.957281 31.272625 51.422609 31.265625 51.974609 L 31.238281 53.974609 C 31.231281 54.526609 31.674563 54.981281 32.226562 54.988281 L 32.238281 54.988281 C 32.784281 54.988281 33.230281 54.548953 33.238281 54.001953 L 33.265625 52.001953 C 33.272625 51.449953 32.829344 50.995281 32.277344 50.988281 z"/></svg>